name analog
datacolumns 19
datarows 57
range 0.0 0.028
endheader
time	ground_force_vx	ground_force_vy	ground_force_vz	ground_force_px	ground_force_py	ground_force_pz	l_ground_force_vx	l_ground_force_vy	l_ground_force_vz	l_ground_force_px	l_ground_force_py	l_ground_force_pz	ground_torque_x	ground_torque_y	ground_torque_z	l_ground_torque_x	l_ground_torque_y	l_ground_torque_z
0.0	-0.0	-0.0	-0.0	-0.0	-0.0	-0.0	-4.014511585235596	-134.49012756347656	-836.833251953125	-0.0	-0.0	-0.0	-0.0	-0.0	-0.0	171442.15625	-6555.17626953125	-3612.2314453125
0.0005	-0.0	-0.0	-0.0	-0.0	-0.0	-0.0	-3.904501676559448	-133.6071014404297	-833.513427734375	-0.0	-0.0	-0.0	-0.0	-0.0	-0.0	171075.625	-6606.33544921875	-3462.70458984375
0.001	-0.0	-0.0	-0.0	-0.0	-0.0	-0.0	-3.658624410629273	-132.88043212890625	-830.9808349609375	-0.0	-0.0	-0.0	-0.0	-0.0	-0.0	170471.5625	-6985.9921875	-3344.049072265625
0.0015	-0.0	-0.0	-0.0	-0.0	-0.0	-0.0	-2.8379833698272705	-132.30587768554688	-829.326171875	-0.0	-0.0	-0.0	-0.0	-0.0	-0.0	170010.609375	-7144.9677734375	-3135.134033203125
0.002	-0.0	-0.0	-0.0	-0.0	-0.0	-0.0	-2.328299045562744	-132.1953582763672	-825.30859375	-0.0	-0.0	-0.0	-0.0	-0.0	-0.0	169621.890625	-7277.74609375	-2942.149169921875
0.0025	-0.0	-0.0	-0.0	-0.0	-0.0	-0.0	-1.9961074590682983	-131.5331268310547	-824.4326782226562	-0.0	-0.0	-0.0	-0.0	-0.0	-0.0	168842.484375	-7666.88720703125	-2756.4853515625
0.003	-0.0	-0.0	-0.0	-0.0	-0.0	-0.0	-1.7742805480957031	-131.90847778320312	-822.7759399414062	-0.0	-0.0	-0.0	-0.0	-0.0	-0.0	168465.875	-7655.138671875	-2756.436767578125
0.0035	-0.0	-0.0	-0.0	5.285651683807373	9.98232078552246	-26.488494873046875	-1.773980736732483	-131.6433563232422	-821.8158569335938	-0.0	-0.0	-0.0	-0.0	-0.0	-0.0	168004.765625	-7902.76904296875	-2578.33154296875
0.004	-0.0	-0.0	-0.0	5.8878936767578125	14.594715118408203	-37.17372512817383	-2.172713041305542	-131.4441680908203	-819.1133422851562	-0.0	-0.0	-0.0	-0.0	-0.0	-0.0	167744.4375	-8303.3544921875	-2578.81884765625
0.0045000000000000005	-0.0	-0.0	-0.0	4.685262203216553	17.982229232788086	-47.588966369628906	-2.218401908874512	-131.46714782714844	-817.27978515625	-0.0	-0.0	-0.0	-0.0	-0.0	-0.0	167298.640625	-8670.20703125	-2459.846923828125
0.005	-0.0	-0.0	-0.0	1.6508872509002686	18.82855033874512	-56.77074813842773	-1.9516372680664065	-131.15956115722656	-814.2252197265625	-0.0	-0.0	-0.0	-0.0	-0.0	-0.0	167148.078125	-8859.015625	-2430.151611328125
0.0055	-0.0	-0.0	-0.0	1.1388739347457886	18.38515853881836	-65.33372497558594	-2.040348052978516	-129.90048217773438	-811.1697387695312	-0.0	-0.0	-0.0	-0.0	-0.0	-0.0	166415.375	-8923.4814453125	-2266.93994140625
0.006	-0.0	-0.0	-0.0	2.543217897415161	17.20073127746582	-78.40594482421875	-2.374739170074463	-129.10594177246094	-805.5787353515625	-0.0	-0.0	-0.0	-0.0	-0.0	-0.0	165444.21875	-9627.1416015625	-2178.054931640625
0.006500000000000001	-0.0	-0.0	-0.0	4.571617126464844	16.489124298095703	-89.96758270263672	-1.908096432685852	-127.9564437866211	-799.2145385742188	-0.0	-0.0	-0.0	-0.0	-0.0	-0.0	164370.984375	-9601.9267578125	-1991.1397705078125
0.007	-0.0	-0.0	-0.0	5.727606296539307	16.025354385375977	-99.48827362060548	-1.643841028213501	-126.98495483398438	-793.28662109375	-0.0	-0.0	-0.0	-0.0	-0.0	-0.0	162710.0625	-9822.6044921875	-1857.461669921875
0.0075	-0.0	-0.0	-0.0	5.91181230545044	16.08696174621582	-110.28682708740234	-1.7763099670410156	-125.70748901367188	-783.9306030273438	-0.0	-0.0	-0.0	-0.0	-0.0	-0.0	160996.9375	-10123.2158203125	-1857.881591796875
0.008	-0.0	-0.0	-0.0	5.911986827850342	17.245540618896484	-117.95264434814452	-1.1293182373046875	-124.40225219726562	-775.9940185546875	-0.0	-0.0	-0.0	-0.0	-0.0	-0.0	159205.96875	-10190.1513671875	-1611.8170166015625
0.0085	-0.0	-0.0	-0.0	6.001321792602539	18.936384201049805	-128.72903442382812	-1.261014699935913	-122.8125457763672	-767.445068359375	-0.0	-0.0	-0.0	-0.0	-0.0	-0.0	157379.640625	-10344.1650390625	-1403.8448486328125
0.009000000000000001	-0.0	-0.0	-0.0	5.749794960021973	20.478422164916992	-138.9077911376953	-0.9786096811294556	-121.42093658447266	-757.1517944335938	-0.0	-0.0	-0.0	-0.0	-0.0	-0.0	155695.25	-10537.3154296875	-1359.2359619140625
0.0095	-0.0	-0.0	-0.0	4.888134002685547	21.25914192199707	-146.5574493408203	-0.6668415665626526	-119.27994537353516	-745.1738891601562	-0.0	-0.0	-0.0	-0.0	-0.0	-0.0	153601.78125	-10796.0439453125	-1143.677978515625
0.01	-0.0	-0.0	-0.0	3.6113476753234863	22.10433959960937	-156.5569610595703	-0.202065885066986	-117.89146423339844	-736.0115966796875	-0.0	-0.0	-0.0	-0.0	-0.0	-0.0	151355.859375	-10977.1337890625	-904.62744140625
0.0105	-0.0	-0.0	-0.0	2.0268733501434326	23.02058982849121	-165.11865234375	0.6635876297950745	-116.03348541259766	-727.03125	-0.0	-0.0	-0.0	-0.0	-0.0	-0.0	149398.25	-11296.740234375	-643.655029296875
0.011	-0.0	-0.0	-0.0	1.095619797706604	24.460718154907227	-175.27659606933594	1.145935297012329	-113.6911849975586	-714.8951416015625	-0.0	-0.0	-0.0	-0.0	-0.0	-0.0	147279.578125	-11522.1806640625	-413.6950988769531
0.0115	-0.0	-0.0	-0.0	-0.0466167479753494	26.17100143432617	-181.61880493164065	2.235006809234619	-111.44480895996094	-704.5045776367188	-0.0	-0.0	-0.0	-0.0	-0.0	-0.0	145233.484375	-11797.2919921875	113.19552612304688
0.012	-0.0	-0.0	-0.0	-0.0892105102539062	28.322248458862305	-189.6239318847656	3.0161666870117188	-108.9889678955078	-694.2962036132812	-0.0	-0.0	-0.0	-0.0	-0.0	-0.0	142845.828125	-12003.236328125	321.965087890625
0.0125	-0.0	-0.0	-0.0	0.2464339882135391	29.654829025268555	-200.13409423828125	3.408843994140625	-107.29418182373048	-682.9405517578125	-0.0	-0.0	-0.0	-0.0	-0.0	-0.0	140964.8125	-12289.072265625	626.3267822265625
0.013000000000000001	-0.0	-0.0	-0.0	0.3004319965839386	31.10179328918457	-210.24436950683597	4.143743515014648	-105.0400390625	-672.3005981445312	-0.0	-0.0	-0.0	-0.0	-0.0	-0.0	138541.328125	-12264.8203125	977.8167114257812
0.0135	-0.0	-0.0	-0.0	1.086634397506714	33.04633712768555	-219.5111389160156	5.119388103485107	-103.211181640625	-659.6683349609375	-0.0	-0.0	-0.0	-0.0	-0.0	-0.0	135957.6875	-12477.3408203125	1432.5948486328125
0.014	-0.0	-0.0	-0.0	1.5375750064849854	34.220855712890625	-230.3564453125	6.079262733459473	-101.12832641601562	-648.148193359375	-0.0	-0.0	-0.0	-0.0	-0.0	-0.0	133473.6875	-12440.845703125	1618.8662109375
0.0145	-0.0	-0.0	-0.0	2.414106845855713	37.10459518432617	-237.7515563964844	6.094858169555664	-99.1852569580078	-634.6756591796875	-0.0	-0.0	-0.0	-0.0	-0.0	-0.0	130914.3359375	-12272.328125	1916.060546875
0.015	-0.0	-0.0	-0.0	2.702810764312744	39.274452209472656	-249.9907684326172	6.3400654792785645	-97.2890853881836	-618.8002319335938	-0.0	-0.0	-0.0	-0.0	-0.0	-0.0	127621.421875	-12249.216796875	2026.6163330078125
0.0155	-0.0	-0.0	-0.0	3.0807085037231445	41.74287796020508	-261.471435546875	6.606048107147217	-95.46089935302734	-604.5087280273438	-0.0	-0.0	-0.0	-0.0	-0.0	-0.0	124365.40625	-11769.0986328125	2257.652099609375
0.016	-0.0	-0.0	-0.0	3.095471143722534	44.51145553588867	-274.0191345214844	6.387176513671875	-93.02933502197266	-587.58837890625	-0.0	-0.0	-0.0	-0.0	-0.0	-0.0	120913.8671875	-11440.3896484375	2244.311767578125
0.0165	-0.0	-0.0	-0.0	3.732402086257935	47.16440963745117	-290.8063049316406	6.41400957107544	-90.75980377197266	-571.260986328125	-0.0	-0.0	-0.0	-0.0	-0.0	-0.0	117297.90625	-10544.814453125	2288.406494140625
0.017	-0.0	-0.0	-0.0	3.8294596672058105	50.173828125	-306.6715393066406	5.92307186126709	-87.73037719726562	-552.4899291992188	-0.0	-0.0	-0.0	-0.0	-0.0	-0.0	113420.4140625	-10459.31640625	2437.17236328125
0.0175	-0.0	-0.0	-0.0	3.8772451877594	52.86127471923828	-324.2191772460937	6.141537666320801	-85.08760070800781	-533.2882080078125	-0.0	-0.0	-0.0	-0.0	-0.0	-0.0	109711.2109375	-9964.6494140625	2426.65966796875
0.018000000000000002	-0.0	-0.0	-0.0	4.1652703285217285	55.45962142944336	-343.42236328125	6.107624530792236	-81.85387420654297	-515.4030151367188	-0.0	-0.0	-0.0	-0.0	-0.0	-0.0	105660.53125	-9049.4130859375	2518.656982421875
0.0185	-0.0	-0.0	-0.0	5.057227611541748	57.98297119140625	-363.2833557128906	5.991579532623291	-78.60630798339844	-493.6768798828125	-0.0	-0.0	-0.0	-0.0	-0.0	-0.0	101519.890625	-8389.390625	2437.188232421875
0.019	-0.0	-0.0	-0.0	5.65368127822876	60.08134460449219	-384.9070739746094	5.609115123748779	-74.97220611572266	-471.1435852050781	-0.0	-0.0	-0.0	-0.0	-0.0	-0.0	96915.703125	-8009.97265625	2426.6611328125
0.0195	-0.0	-0.0	-0.0	7.254173278808594	61.8768424987793	-409.03228759765625	5.548257827758789	-71.19491577148438	-452.4509582519531	-0.0	-0.0	-0.0	-0.0	-0.0	-0.0	92661.234375	-7257.015625	2358.985595703125
0.02	-0.0	-0.0	-0.0	8.694028854370117	64.11302947998047	-431.4909973144531	5.576476097106934	-67.33696746826172	-429.9646911621094	-0.0	-0.0	-0.0	-0.0	-0.0	-0.0	88186.078125	-6441.576171875	2353.22998046875
0.0205	-0.0	-0.0	-0.0	10.319997787475586	65.25554656982422	-456.3240966796875	5.165387153625488	-63.67592239379883	-410.253173828125	-0.0	-0.0	-0.0	-0.0	-0.0	-0.0	84335.703125	-5802.869140625	2337.700927734375
0.021	-0.0	-0.0	-0.0	11.183228492736816	67.73065948486328	-478.57177734375	5.331011772155762	-59.77378463745117	-390.8455810546875	-0.0	-0.0	-0.0	-0.0	-0.0	-0.0	80277.6953125	-4963.2724609375	2263.226318359375
0.021500000000000002	-0.0	-0.0	-0.0	12.33982276916504	69.93572998046875	-504.477783203125	4.770337104797363	-55.3662338256836	-371.0239562988281	-0.0	-0.0	-0.0	-0.0	-0.0	-0.0	75788.7421875	-4475.86865234375	2440.891357421875
0.022	-0.0	-0.0	-0.0	12.886462211608888	72.50312805175781	-529.2666625976562	5.174014091491699	-51.08970642089844	-348.679931640625	-0.0	-0.0	-0.0	-0.0	-0.0	-0.0	71641.6796875	-3605.703369140625	2255.5810546875
0.0225	-0.0	-0.0	-0.0	13.24318027496338	74.86038970947266	-552.53857421875	5.03660249710083	-46.88801193237305	-328.2668151855469	-0.0	-0.0	-0.0	-0.0	-0.0	-0.0	66993.515625	-2759.244140625	2413.836669921875
0.023	-0.0	-0.0	-0.0	13.441488265991213	77.71239471435547	-576.6268310546875	5.076385498046875	-42.29549026489258	-305.7004089355469	-0.0	-0.0	-0.0	-0.0	-0.0	-0.0	62549.92578125	-2220.30859375	2283.64306640625
0.0235	-0.0	-0.0	-0.0	12.886103630065918	80.27699279785156	-598.8763427734375	4.790382385253906	-38.20387649536133	-284.09112548828125	-0.0	-0.0	-0.0	-0.0	-0.0	-0.0	57974.10546875	-1473.025146484375	2182.22265625
0.024	-0.0	-0.0	-0.0	12.766965866088867	83.44587707519531	-619.242431640625	4.741147041320801	-33.72895431518555	-262.7942199707031	-0.0	-0.0	-0.0	-0.0	-0.0	-0.0	53471.90234375	-983.159912109375	2288.799560546875
0.0245	-0.0	-0.0	-0.0	12.657861709594728	86.1593017578125	-640.314208984375	4.563642501831055	-29.244359970092773	-241.6519775390625	-0.0	-0.0	-0.0	-0.0	-0.0	-0.0	49255.40234375	-455.4248962402344	2068.981201171875
0.025	-0.0	-0.0	-0.0	12.540186882019045	89.13978576660156	-664.3685913085938	5.056514739990234	-24.97550201416016	-221.71453857421875	-0.0	-0.0	-0.0	-0.0	-0.0	-0.0	44750.75390625	-97.01937866210938	2162.727294921875
0.025500000000000002	-0.0	-0.0	-0.0	12.171952247619627	92.29834747314452	-683.51708984375	5.2143731117248535	-20.95306205749512	-202.785400390625	-0.0	-0.0	-0.0	-0.0	-0.0	-0.0	41170.41796875	178.1524658203125	2134.197265625
0.026000000000000002	-0.0	-0.0	-0.0	11.706170082092283	95.73480224609376	-705.2574462890625	5.707713127136231	-17.046085357666016	-183.6192321777344	-0.0	-0.0	-0.0	-0.0	-0.0	-0.0	37184.546875	394.8550720214844	2172.37841796875
0.0265	-0.0	-0.0	-0.0	11.83693790435791	99.14955139160156	-725.354248046875	5.763807773590088	-13.681371688842772	-166.35867309570312	-0.0	-0.0	-0.0	-0.0	-0.0	-0.0	33567.796875	715.5945434570312	2255.09130859375
0.027	-0.0	-0.0	-0.0	10.248011589050291	102.8341064453125	-742.33984375	6.26797342300415	-9.91135025024414	-151.26991271972656	-0.0	-0.0	-0.0	-0.0	-0.0	-0.0	30561.40625	935.83056640625	2226.7431640625
0.0275	-0.0	-0.0	-0.0	9.04118824005127	105.87543487548828	-758.9381713867188	6.433783531188965	-6.723784446716309	-137.68663024902344	-0.0	-0.0	-0.0	-0.0	-0.0	-0.0	27266.76953125	1010.4850463867188	2270.26318359375
0.028	-0.0	-0.0	-0.0	6.799368381500244	109.86671447753906	-774.8302612304688	6.957987308502197	-4.446840286254883	-123.02294921875	-0.0	-0.0	-0.0	-0.0	-0.0	-0.0	24834.39453125	1060.9093017578125	2308.609619140625
